<?xml version="1.0" encoding="iso-8859-1"?>
<!-- Generator: Adobe Illustrator 17.0.0, SVG Export Plug-In . SVG Version: 6.00 Build 0)  -->
<!DOCTYPE svg PUBLIC "-//W3C//DTD SVG 1.1//EN" "http://www.w3.org/Graphics/SVG/1.1/DTD/svg11.dtd">
<svg version="1.1" id="&#x56FE;&#x5C42;_1" xmlns="http://www.w3.org/2000/svg" xmlns:xlink="http://www.w3.org/1999/xlink" x="0px"
	 y="0px" width="276px" height="185.902px" viewBox="0 0 276 185.902" style="enable-background:new 0 0 276 185.902;"
	 xml:space="preserve">
<path style="fill:none;stroke:#E71F19;stroke-miterlimit:10;" d="M189.723,96.365"/>
<path style="fill:none;stroke:#E71F19;stroke-miterlimit:10;" d="M60.706,154.04"/>
<path style="fill:#BD4C4C;" d="M26.123,185.902c-5.089,0-9.876-1.335-13.973-3.994C4.428,176.898,0,167.732,0,156.761V29.162
	C0,18.193,4.428,9.025,12.149,4.008c7.721-5.016,17.897-5.339,27.92-0.882l155.811,69.27c14.485,6.439,16.653,15.555,16.656,20.415
	s-2.154,13.979-16.632,20.437l-19.417,8.68c-6.373,2.849-7.237,3.63-13.405,1.337l-14.025-5.564
	c-2.391-0.976-1.689-2.262,0.585-3.384l38.93-17.507c3.726-1.661,5.349-3.258,5.845-3.985c-0.497-0.728-2.122-2.322-5.85-3.979
	L32.757,19.574c-4.349-1.934-8.286-2.106-10.8-0.472C19.442,20.735,18,24.402,18,29.162v127.599c0,4.758,1.439,8.42,3.947,10.048
	c2.509,1.628,6.439,1.45,10.784-0.488l64.826-28.916c6.843-2.909,8.586-5.098,15.154-1.15l12.12,6.182
	c2.336,1.203,2.052,1.6-0.018,2.526L40.064,182.76C35.361,184.857,30.624,185.902,26.123,185.902z"/>
<path style="fill:#BD4C4C;" d="M249.414,0c5.089,0,10.108,1.335,14.205,3.994C271.34,9.004,276,18.17,276,29.142V156.74
	c0,10.969-4.66,20.137-12.381,25.154c-7.721,5.016-18.013,5.339-28.036,0.882l-155.869-69.27
	c-14.485-6.439-16.682-15.555-16.685-20.415s2.14-13.979,16.617-20.437l19.41-8.68c6.373-2.849,7.234-3.63,13.402-1.337
	l14.023,5.564c2.391,0.976,1.688,2.262-0.586,3.384L86.964,89.095c-3.726,1.661-5.349,3.258-5.845,3.985
	c0.497,0.728,2.122,2.322,5.849,3.979l155.81,69.27c4.349,1.934,8.518,2.106,11.032,0.472c2.515-1.634,4.188-5.301,4.188-10.061
	V29.142c0-4.758-1.671-8.42-4.179-10.048c-2.509-1.628-6.555-1.45-10.9,0.488l-64.884,28.916c-6.844,2.909-8.615,5.098-15.183,1.15
	l-12.134-6.182c-2.336-1.203-2.059-1.6,0.011-2.526l84.744-37.797C240.178,1.045,244.912,0,249.414,0z"/>
<g>
	<path style="fill:none;stroke:#71C7D5;stroke-width:18;stroke-miterlimit:10;" d="M116.985,138.594"/>
</g>
<g>
	<path style="fill:none;stroke:#71C7D5;stroke-width:18;stroke-miterlimit:10;" d="M156.004,121.19"/>
</g>
</svg>
